# AST/ASF file generated using VICON BodyLanguage
# -----------------------------------------------
:version 1.10
:name VICON
:units
  mass 1.0
  length 0.45
  angle deg
:documentation
   .ast/.asf automatically generated from VICON data using
   VICON BodyBuilder and BodyLanguage model FoxedUp or BRILLIANT.MOD
:root
   order TX TY TZ RX RY RZ
   axis XYZ
   position 0 0 0  
   orientation 0 0 0 
:bonedata
  begin
     id 1 
     name lhipjoint
     direction 0.588788 -0.725889 0.355548 
     length 2.37778 
     axis 0 0 0  XYZ
  end
  begin
     id 2 
     name lfemur
     direction 0.34202 -0.939693 0  
     length 6.86393  
     axis 0 0 20  XYZ
    dof rx ry rz
    limits (-160.0 20.0)
           (-70.0 70.0)
           (-60.0 70.0)
  end
  begin
     id 3 
     name ltibia
     direction 0.34202 -0.939693 0   
     length 7.32851   
     axis 0 0 20   XYZ
    dof rx
    limits (-10.0 170.0)
  end
  begin
     id 4 
     name lfoot
     direction 0.0626533 -0.172138 0.983078   
     length 1.98929   
     axis -90 7.62852e-016 20   XYZ
    dof rx rz
    limits (-45.0 90.0)
           (-70.0 20.0)
  end
  begin
     id 5 
     name ltoes
     direction 1.53647e-011 -4.21734e-011 1   
     length 1.00479   
     axis -90 7.62852e-016 20   XYZ
    dof rx
    limits (-90.0 20.0)
  end
  begin
     id 6 
     name rhipjoint
     direction -0.59141 -0.724168 0.354705   
     length 2.38343  
     axis 0 0 0  XYZ 
  end
  begin
     id 7 
     name rfemur
     direction -0.34202 -0.939693 0   
     length 6.95589   
     axis 0 0 -20   XYZ
    dof rx ry rz
    limits (-160.0 20.0)
           (-70.0 70.0)
           (-70.0 60.0)
  end
  begin
     id 8 
     name rtibia
     direction -0.34202 -0.939693 0   
     length 7.32327   
     axis 0 0 -20   XYZ
    dof rx
    limits (-10.0 170.0)
 end
 begin
     id 9 
     name rfoot
     direction -0.0660461 -0.18146 0.981178   
     length 1.85272  
     axis -90 -7.62852e-016 -20   XYZ
    dof rx rz
    limits (-45.0 90.0)
           (-20.0 70.0)
  end
  begin
     id 10 
     name rtoes
     direction -1.53586e-011 -4.21988e-011 1   
     length 0.93746   
     axis -90 -7.62852e-016 -20   XYZ
    dof rx
    limits (-90.0 20.0)
  end
  begin
     id 11 
     name lowerback
     direction -0.0107982 0.991059 0.13299   
     length 1.98691   
     axis 0 0 0   XYZ
    dof rx ry rz
    limits (-20.0 45.0)
           (-30.0 30.0)
           (-30.0 30.0)
  end
  begin
     id 12 
     name upperback
     direction 0.0076296 0.999916 0.0104576   
     length 1.99501   
     axis 0 0 0   XYZ
    dof rx ry rz
    limits (-20.0 45.0)
           (-30.0 30.0)
           (-30.0 30.0)
  end
  begin
     id 13 
     name thorax
     direction 0.01176 0.998615 -0.0512909   
     length 2.03144   
     axis 0 0 0   XYZ
    dof rx ry rz
    limits (-20.0 45.0)
           (-30.0 30.0)
           (-30.0 30.0)
  end
  begin
     id 14 
     name lowerneck
     direction -0.0171909 0.999644 0.0204011   
     length 1.71818   
     axis 0 0 0   XYZ
    dof rx ry rz
    limits (-20.0 45.0)
           (-30.0 30.0)
           (-30.0 30.0)
  end
  begin
     id 15 
     name upperneck
     direction 0.0250902 0.997482 -0.0663316   
     length 1.66199   
     axis 0 0 0   XYZ
    dof rx ry rz
    limits (-20.0 45.0)
           (-30.0 30.0)
           (-30.0 30.0)
  end
  begin
     id 16
     name head
     direction 0.00881535 0.99956 -0.0283365  
     length 1.81545  
     axis 0 0 0   XYZ
    dof rx ry rz
    limits (-20.0 45.0)
           (-30.0 30.0)
           (-30.0 30.0)
  end
  begin
     id 17 
     name lclavicle
     direction 0.840411 0.486876 -0.238035  
     length 3.30409  
     axis 0 0 0   XYZ
    dof ry rz
    limits (-20.0 10.0)
           (0.0 20.0)
  end
  begin
     id 18 
     name lhumerus
     direction 1 -4.48977e-011 -5.16239e-027   
     length 4.62672   
     axis 180 -30 -90   XYZ
    dof rx ry rz
    limits (-60.0 90.0)
           (-90.0 90.0)
           (-90.0 90.0)
  end
  begin
     id 19
     name lradius
     direction 1 -4.48977e-011 -8.71171e-027   
     length 3.11018   
     axis 180 -30 -90   XYZ
    dof rx
    limits (-10.0 170.0)
  end
  begin
     id 20
     name lwrist
     direction 1 -4.48912e-011 -1.03764e-026   
     length 1.55509   
     axis 9.09556e-015 90 90   XYZ
    dof ry
    limits (-180.0 0.0)
 end
  begin
     id 21 
     name lhand
     direction 1 -4.49072e-011 -2.07528e-026   
     length 0.743834   
     axis 1.3242e-014 90 90   XYZ
    dof rx rz
    limits (-90.0 90.0)
           (-45.0 45.0)
  end
  begin
     id 22 
     name lfingers
     direction 1 -4.48909e-011 -4.15056e-026   
     length 0.599698   
     axis 2.64841e-014 90 90   XYZ
    dof rx
    limits (0.0 90.0)
  end
  begin
     id 23
     name lthumb
     direction 0.707107 -6.35013e-011 0.707107   
     length 0.86105   
     axis -90 45 2.85299e-015   XYZ
    dof rx rz
    limits (-45.0 45.0)
           (-45.0 45.0)
  end
  begin
     id 24 
     name rclavicle
     direction -0.835208 0.500237 -0.228452   
     length 3.2716  
     axis 0 0 0   XYZ 
    dof ry rz
    limits (-10.0 20.0)
           (-20.0 0.0)
  end
  begin
     id 25 
     name rhumerus
     direction -1 -4.48978e-011 -5.1953e-028  
     length 4.55919   
     axis 180 30 90   XYZ
    dof rx ry rz
    limits (-90.0 60.0)
           (-90.0 90.0)
           (-90.0 90.0)
  end
  begin
     id 26 
     name rradius
     direction -1 -4.48961e-011 -5.99546e-027   
     length 3.22748   
     axis 180 30 90   XYZ
    dof rx
    limits (-10.0 170.0)
  end
  begin
     id 27 
     name rwrist
     direction -1 -4.48986e-011 -1.03764e-026   
     length 1.61374   
     axis 9.09556e-015 -90 -90   XYZ
    dof ry
    limits (-180.0 0.0)
  end
  begin
     id 28
     name rhand
     direction -1 -4.4899e-011 -2.07528e-026   
     length 0.700882   
     axis 1.3242e-014 -90 -90   XYZ
    dof rx rz
    limits (-90.0 90.0)
           (-45.0 45.0)
  end
  begin
     id 29
     name rfingers
     direction -1 -4.48991e-011 -4.15056e-026   
     length 0.565069   
     axis 2.64841e-014 -90 -90   XYZ
    dof rx
    limits (0.0 90.0)
  end
  begin
     id 30
     name rthumb
     direction -0.707107 -6.34804e-011 0.707107   
     length 0.811329   
     axis -90 -45 -2.85299e-015   XYZ
    dof rx rz
    limits (-45.0 45.0)
           (-45.0 45.0)
  end
:hierarchy
  begin
    root lhipjoint rhipjoint lowerback
    lhipjoint lfemur
    lfemur ltibia
    ltibia lfoot
    lfoot ltoes
    rhipjoint rfemur
    rfemur rtibia
    rtibia rfoot
    rfoot rtoes
    lowerback upperback
    upperback thorax
    thorax lowerneck lclavicle rclavicle
    lowerneck upperneck
    upperneck head
    lclavicle lhumerus
    lhumerus lradius
    lradius lwrist
    lwrist lhand lthumb
    lhand lfingers
    rclavicle rhumerus
    rhumerus rradius
    rradius rwrist
    rwrist rhand rthumb
    rhand rfingers
  end

#!OML:ASF F:\VICON\USERDATA\INSTALL\SteveWalk\SteveWalk.ASF
:FULLY-SPECIFIED
:DEGREES
303
root 0.272347 15.7742 23.2849 19.8113 -3.41532 -0.992583
lowerback -18.5582 1.64685 -1.00404
upperback -6.96259 2.34137 -0.301417
thorax 2.88063 1.16951 0.730173
lowerneck -5.20298 -0.081982 0.23157
upperneck 9.59702 -0.126356 -0.0385451
head 4.06286 -0.0552245 -0.0602717
rclavicle 2.43573e-014 1.64991e-014
rhumerus -15.543 11.387 -82.9527
rradius 54.4779
rwrist -16.329
rhand -18.8197 -32.4421
rfingers 7.12502
rthumb 7.47921 -62.2898
lclavicle 2.43573e-014 1.64991e-014
lhumerus -82.2335 29.8575 19.4163
lradius 9.78837
lwrist -59.7832
lhand -9.43854 -14.0016
lfingers 7.12502
lthumb 16.5243 15.3148
rfemur 1.14042 -1.84599 19.5086
rtibia 22.4041
rfoot -9.98461 25.601
rtoes 6.49355
lfemur -52.303 2.43043 -20.16
ltibia 23.6472
lfoot -0.940569 -1.72679
ltoes -16.6733
304
root 0.28467 15.7642 23.5353 19.5802 -2.93972 0.0301924
lowerback -18.4014 1.32683 -2.13011
upperback -6.99705 2.13309 -0.70493
thorax 2.73866 1.0778 0.892876
lowerneck -5.2107 -0.210699 0.252299
upperneck 9.60773 -0.336257 0.307762
head 4.06858 -0.142068 0.0406057
rclavicle -6.60959e-015 -3.37934e-015
rhumerus -16.661 10.7662 -83.2707
rradius 54.8331
rwrist -16.1337
rhand -18.3547 -32.237
rfingers 7.12502
rthumb 7.92796 -62.0684
lclavicle -6.60959e-015 -3.37934e-015
lhumerus -82.2432 29.9105 18.6797
lradius 9.64704
lwrist -60.1613
lhand -9.89919 -14.5469
lfingers 7.12502
lthumb 16.0807 14.8059
rfemur 1.21676 -1.7889 18.5686
rtibia 24.1761
rfoot -8.44983 24.9899
rtoes 3.26259
lfemur -52.5106 1.65863 -21.0856
ltibia 25.6875
lfoot -0.483373 -2.86555
ltoes -13.2684
305
root 0.290356 15.7515 23.7683 19.505 -2.58428 0.450355
lowerback -18.2949 1.16108 -2.79558
upperback -6.97744 2.03737 -0.904942
thorax 2.68885 1.03765 1.03589
lowerneck -5.47444 -0.358892 0.200578
upperneck 9.6829 -0.570506 0.683299
head 4.15009 -0.241447 0.162473
rclavicle -1.52816e-015 1.98785e-016
rhumerus -17.7022 10.0108 -83.5124
rradius 55.1946
rwrist -15.9306
rhand -18.0385 -32.245
rfingers 7.12502
rthumb 8.23313 -62.0646
lclavicle -1.52816e-015 1.98785e-016
lhumerus -82.0472 30.3737 18.0836
lradius 9.32745
lwrist -60.8641
lhand -9.94041 -13.9303
lfingers 7.12502
lthumb 16.041 15.4257
rfemur 0.739421 -1.46886 18.2791
rtibia 26.4321
rfoot -6.03347 24.4285
rtoes 1.487
lfemur -52.8528 1.14798 -21.3891
ltibia 27.8572
lfoot -0.437594 -3.428
ltoes -12.1538
306
root 0.303351 15.7358 24.0035 19.2345 -1.6139 0.720734
lowerback -17.9728 0.861194 -3.13807
upperback -6.93854 1.69872 -1.00926
thorax 2.5667 0.875595 1.0454
lowerneck -5.47898 -0.451822 -0.0351234
upperneck 9.61889 -0.727776 1.22549
head 4.133 -0.302445 0.377023
rclavicle 2.99295e-014 -1.31198e-014
rhumerus -19.0308 9.21114 -83.7182
rradius 55.5543
rwrist -15.5535
rhand -17.4603 -32.6678
rfingers 7.12502
rthumb 8.79121 -62.4647
lclavicle 2.99295e-014 -1.31198e-014
lhumerus -82.0519 30.6293 17.477
lradius 9.32106
lwrist -61.5381
lhand -9.60544 -13.0131
lfingers 7.12502
lthumb 16.3636 16.3166
rfemur 0.322525 -1.67705 18.3321
rtibia 29.0379
rfoot -2.92199 23.6119
rtoes 0.926997
lfemur -52.8664 0.342171 -21.6352
ltibia 29.897
lfoot -0.985817 -3.66045
ltoes -14.9781
307
root 0.311715 15.7319 24.2392 19.3365 -1.20481 1.00697
lowerback -17.972 0.731951 -3.61979
upperback -7.01343 1.61588 -1.16775
thorax 2.47841 0.84212 1.13287
lowerneck -5.5475 -0.584395 -0.299851
upperneck 9.56039 -0.940437 1.81703
head 4.13438 -0.389339 0.610461
rclavicle -1.09332e-014 -7.15625e-015
rhumerus -20.2702 8.39335 -83.8528
rradius 55.6714
rwrist -15.464
rhand -16.7564 -33.5672
rfingers 7.12502
rthumb 9.47042 -63.3344
lclavicle -1.09332e-014 -7.15625e-015
lhumerus -82.0927 30.7269 16.8915
lradius 9.58727
lwrist -62.1236
lhand -9.63513 -13.1461
lfingers 7.12502
lthumb 16.335 16.1859
rfemur -0.851131 -1.81915 18.0973
rtibia 31.8808
rfoot 0.814081 22.6898
rtoes -0.157567
lfemur -53.1752 0.0617268 -22.1429
ltibia 31.8707
lfoot -1.94356 -4.04448
ltoes -18.0771
308
root 0.330311 15.745 24.4812 18.9848 -0.775793 2.26353
lowerback -17.6062 0.435258 -4.90673
upperback -6.92694 1.44248 -1.61962
thorax 2.35868 0.77043 1.34229
lowerneck -5.79344 -0.783397 -0.469037
upperneck 9.67718 -1.24434 2.30156
head 4.2369 -0.520514 0.787295
rclavicle -1.02374e-014 2.10712e-014
rhumerus -21.4862 7.50201 -83.9723
rradius 55.8404
rwrist -16.071
rhand -16.5015 -34.9502
rfingers 7.12502
rthumb 9.71632 -64.7061
lclavicle -1.02374e-014 2.10712e-014
lhumerus -82.0154 31.0411 16.3049
lradius 9.72064
lwrist -62.6897
lhand -9.71355 -13.4108
lfingers 7.12502
lthumb 16.2595 15.9275
rfemur -1.76384 -2.43904 16.7154
rtibia 34.95
rfoot 4.75867 21.9064
rtoes -1.32
lfemur -52.6384 -0.733841 -23.5465
ltibia 33.3458
lfoot -2.63419 -4.7515
ltoes -17.3044
309
root 0.333447 15.7622 24.7169 18.6359 -0.604941 2.32363
lowerback -17.1413 0.390269 -5.1983
upperback -6.93697 1.40347 -1.716
thorax 2.10013 0.760679 1.38896
lowerneck -5.62753 -0.911777 -0.50732
upperneck 9.55784 -1.44598 2.6472
head 4.16924 -0.607033 0.898945
rclavicle -8.67198e-015 1.59028e-014
rhumerus -23.0339 7.1028 -84.3671
rradius 55.7833
rwrist -15.6681
rhand -17.2351 -33.5939
rfingers 7.12502
rthumb 9.0085 -63.3816
lclavicle -8.67198e-015 1.59028e-014
lhumerus -82.1317 31.2607 15.5251
lradius 9.84836
lwrist -62.9924
lhand -9.5778 -13.7452
lfingers 7.12502
lthumb 16.3902 15.5823
rfemur -2.92857 -2.14259 16.6437
rtibia 37.976
rfoot 8.85531 21.3192
rtoes -2.60705
lfemur -52.0933 -1.04898 -23.4911
ltibia 34.6174
lfoot -3.15332 -5.09858
ltoes -13.4494
310
root 0.338851 15.7893 24.9565 18.5208 -0.824268 3.13019
lowerback -17.1361 0.244812 -6.26948
upperback -6.88185 1.39406 -1.98965
thorax 2.12754 0.766784 1.70074
lowerneck -5.35483 -0.957778 -0.544917
upperneck 9.13861 -1.52478 2.96486
head 3.97165 -0.638272 1.00591
rclavicle 1.02623e-014 1.59028e-015
rhumerus -24.3953 6.69282 -84.757
rradius 55.5978
rwrist -15.3372
rhand -18.1415 -32.6603
rfingers 7.12502
rthumb 8.13374 -62.4838
lclavicle 1.02623e-014 1.59028e-015
lhumerus -82.402 31.6334 14.6418
lradius 10.037
lwrist -63.1793
lhand -9.50792 -14.2
lfingers 7.12502
lthumb 16.4575 15.1219
rfemur -4.49826 -1.84957 15.564
rtibia 41.1584
rfoot 12.2094 21.7069
rtoes -4.68671
lfemur -51.5126 -1.1771 -24.5021
ltibia 35.5171
lfoot -4.51489 -5.17429
ltoes -12.5089
311
root 0.382109 15.8022 25.1828 18.1799 -0.0386527 2.34383
lowerback -16.8497 0.226733 -4.96957
upperback -6.64469 1.15476 -1.91855
thorax 2.28436 0.622919 1.00086
lowerneck -5.56461 -0.959429 -0.616224
upperneck 8.87603 -1.54557 3.29094
head 3.92631 -0.637057 1.12517
rclavicle -7.95139e-016 1.39149e-014
rhumerus -25.315 6.23616 -85.0767
rradius 55.3215
rwrist -14.8604
rhand -17.2934 -32.8154
rfingers 7.12502
rthumb 8.95219 -62.6055
lclavicle -7.95139e-016 1.39149e-014
lhumerus -81.6442 32.2217 15.6573
lradius 10.1638
lwrist -61.9888
lhand -9.46591 -14.321
lfingers 7.12502
lthumb 16.4979 14.9976
rfemur -5.62275 -2.3298 16.274
rtibia 44.3025
rfoot 15.0037 22.4039
rtoes -5.87345
lfemur -50.8715 -1.48208 -23.8826
ltibia 36.3374
lfoot -5.92184 -5.22208
ltoes -13.8666
312
root 0.380334 15.8296 25.4029 17.9919 -0.879573 2.80334
lowerback -16.6986 0.264459 -5.81627
upperback -6.48772 1.33723 -2.09336
thorax 2.33995 0.717756 1.32465
lowerneck -5.9738 -0.910785 -0.522548
upperneck 8.81007 -1.50332 3.43892
head 3.98428 -0.603276 1.16006
rclavicle -1.07592e-014 3.18055e-014
rhumerus -26.0187 5.80323 -85.4086
rradius 55.0105
rwrist -14.0703
rhand -13.5976 -34.0357
rfingers 7.12502
rthumb 12.517 -63.6408
lclavicle -1.07592e-014 3.18055e-014
lhumerus -80.9594 32.8353 16.4483
lradius 10.1869
lwrist -60.8945
lhand -9.65313 -14.9336
lfingers 7.12502
lthumb 16.3177 14.3999
rfemur -7.43181 -1.33145 15.5423
rtibia 47.6986
rfoot 18.1121 21.8111
rtoes -6.08201
lfemur -49.8641 -1.07476 -24.5422
ltibia 36.8426
lfoot -6.35647 -4.65559
ltoes -11.3483
313
root 0.383959 15.8525 25.6154 17.8307 -1.6387 3.34091
lowerback -16.4249 0.294774 -6.61827
upperback -6.46821 1.48411 -2.28695
thorax 2.18401 0.80182 1.59163
lowerneck -6.03557 -0.810993 -0.366364
upperneck 8.66927 -1.38117 3.44602
head 3.94187 -0.53822 1.13998
rclavicle -8.17502e-015 1.07344e-014
rhumerus -27.046 6.08247 -86.1168
rradius 54.1684
rwrist -16.5681
rhand -15.3117 -38.4835
rfingers 7.12502
rthumb 10.8641 -68.1824
lclavicle -8.17502e-015 1.07344e-014
lhumerus -79.6864 33.0457 18.4954
lradius 10.2816
lwrist -58.4951
lhand -9.97505 -15.1485
lfingers 7.12502
lthumb 16.0077 14.2101
rfemur -9.31948 -0.667199 14.7072
rtibia 51.0482
rfoot 20.9878 20.7813
rtoes -7.48546
lfemur -49.1104 -0.872318 -25.2104
ltibia 37.2854
lfoot -7.85623 -4.63896
ltoes -15.6246
314
root 0.395932 15.8758 25.8312 17.8456 -2.30444 3.98672
lowerback -16.4255 0.276417 -7.37031
upperback -6.52291 1.57675 -2.4917
thorax 2.09628 0.858344 1.81139
lowerneck -5.74828 -0.700084 -0.32452
upperneck 8.39718 -1.22593 3.4496
head 3.78472 -0.465551 1.13918
rclavicle 5.93869e-015 -2.78299e-014
rhumerus -28.1241 5.90761 -86.6313
rradius 53.5159
rwrist -17.1273
rhand -17.1633 -38.5537
rfingers 7.12502
rthumb 9.07774 -68.3383
lclavicle 5.93869e-015 -2.78299e-014
lhumerus -77.9527 32.8904 21.784
lradius 10.6732
lwrist -55.1303
lhand -10.1301 -14.971
lfingers 7.12502
lthumb 15.8584 14.3995
rfemur -11.5134 -0.328997 13.7487
rtibia 54.4347
rfoot 22.7885 19.9784
rtoes -11.4416
lfemur -48.4244 -0.897065 -25.9677
ltibia 37.5458
lfoot -8.4943 -4.29045
ltoes -14.4946
315
root 0.422683 15.8939 26.0423 17.6785 -2.14159 4.1402
lowerback -16.0681 0.190804 -7.25802
upperback -6.51768 1.41668 -2.59002
thorax 1.93312 0.781227 1.61138
lowerneck -5.55939 -0.68343 -0.355173
upperneck 8.18783 -1.19509 3.4727
head 3.67382 -0.454359 1.15184
rclavicle 6.95746e-015 5.56597e-015
rhumerus -28.9373 5.07609 -86.8958
rradius 52.7817
rwrist -15.705
rhand -18.0467 -34.5394
rfingers 7.12502
rthumb 8.22529 -64.3593
lclavicle 6.95746e-015 5.56597e-015
lhumerus -76.2012 32.7764 24.8635
lradius 11.0486
lwrist -52.1403
lhand -10.0476 -14.9464
lfingers 7.12502
lthumb 15.9378 14.4178
rfemur -13.1658 -0.802537 13.4965
rtibia 57.4347
rfoot 23.4309 19.0971
rtoes -12.8608
lfemur -47.3388 -1.3452 -26.1259
ltibia 37.8152
lfoot -9.33115 -3.72988
ltoes -14.3161
316
root 0.442724 15.9093 26.2589 17.6136 -2.17823 4.1005
lowerback -15.9563 0.158398 -7.07992
upperback -6.4605 1.34153 -2.62796
thorax 1.94803 0.739008 1.45829
lowerneck -5.74441 -0.657372 -0.409606
upperneck 8.16399 -1.16429 3.56791
head 3.70291 -0.435348 1.19505
rclavicle 9.69075e-016 -1.43125e-014
rhumerus -29.4557 4.64472 -87.3714
rradius 51.5865
rwrist -15.9106
rhand -18.7001 -37.712
rfingers 7.12502
rthumb 7.59466 -67.5556
lclavicle 9.69075e-016 -1.43125e-014
lhumerus -74.7733 33.0741 26.9357
lradius 11.1964
lwrist -50.1101
lhand -10.1672 -14.8582
lfingers 7.12502
lthumb 15.8226 14.5152
rfemur -14.8939 -1.18548 13.4402
rtibia 60.3055
rfoot 22.4766 18.2799
rtoes -12.545
lfemur -46.3354 -1.7563 -25.9465
ltibia 38.1115
lfoot -10.2428 -3.09452
ltoes -12.8534
317
root 0.482098 15.9307 26.5094 17.8472 -1.89988 3.52
lowerback -16.7245 0.0902116 -6.0122
upperback -6.31129 1.16386 -2.54977
thorax 2.55678 0.618255 0.924152
lowerneck -5.95955 -0.542338 -0.440491
upperneck 8.13056 -1.02028 3.71179
head 3.73218 -0.357198 1.25627
rclavicle -9.56651e-015 9.54166e-015
rhumerus -29.8819 4.24888 -87.8096
rradius 49.4874
rwrist -16.2157
rhand -17.8873 -30.53
rfingers 7.12502
rthumb 8.37909 -60.3438
lclavicle -9.56651e-015 9.54166e-015
lhumerus -73.5658 33.5909 28.5666
lradius 11.2633
lwrist -48.6604
lhand -10.9815 -15.1009
lfingers 7.12502
lthumb 15.0383 14.333
rfemur -16.502 -1.99565 13.8964
rtibia 62.8015
rfoot 20.8156 17.0803
rtoes -11.3181
lfemur -45.7609 -2.08752 -25.4418
ltibia 38.4453
lfoot -10.7536 -2.73515
ltoes -9.36833
